<svg xmlns="http://www.w3.org/2000/svg" xmlns:xlink="http://www.w3.org/1999/xlink" viewBox="0 0 230 90" fill="none"><g filter="url(#A)"><path d="M10 40C10 20.67 25.67 5 45 5h140c19.33 0 35 15.67 35 35h0c0 19.33-15.67 35-35 35H45c-19.33 0-35-15.67-35-35h0z" fill="#fff"/></g><path d="M136.475 33.026c-.968.402-2.015.579-3.061.519-3.015 0-4.805-2.136-4.805-5.39 0-2.954 1.205-5.11 4.286-5.11 2.395 0 3.992 1.204 3.992 2.954h-2.568c0-.885-.213-2.222-1.551-2.222-1.464 0-1.79 1.597-1.79 3.666 0 3.188 1.464 4.938 3.427 4.938a7.61 7.61 0 0 0 2.07-.306v.952zm1.596-4.725c0-3.6 1.511-5.257 4.658-5.257s4.658 2.156 4.658 5.257c0 3.514-1.47 5.244-4.658 5.244-3.48 0-4.658-2.223-4.658-5.244zm4.658 4.505c2.11 0 2.283-2.349 2.283-4.505 0-1.996-.193-4.525-2.283-4.525s-2.282 2.628-2.282 4.525c0 1.79.133 4.505 2.282 4.505h0zm6.222-.087c.459-.412 2.516-2.149 2.516-3.48.001-.127-.024-.253-.075-.37a.89.89 0 0 0-.218-.307.91.91 0 0 0-.699-.235 1.09 1.09 0 0 0-1.018.765h-.399c.083-.355.286-.671.574-.895s.644-.343 1.009-.336c1.058 0 1.777.426 1.777 1.504 0 1.404-2.262 2.955-2.735 3.387h1.744c.752 0 .831-.333.865-.792h.266v1.331h-3.607v-.572zm-26.038 9.956c0-1.511-.366-1.876-1.724-1.923v-.432l3.88-.666v2.762h.047c.319-.759 1.464-2.762 3.6-2.762 1.956 0 2.608 1.378 2.608 3.041v7.213h-2.156v-5.596c0-1.704 0-3.214-1.444-3.214s-2.662 1.996-2.662 3.533v5.277h-2.149v-7.233zm18.678 6.874a8.58 8.58 0 0 1-3.041.586c-3.327 0-5.283-1.996-5.283-5.61 0-3.407 1.637-4.891 4.525-4.891 3.686 0 3.992 2.662 3.992 4.119h-6.148c0 2.156.885 5.217 3.926 5.217a5.61 5.61 0 0 0 1.996-.373l.033.952zm-1.996-6.654c0-.492-.047-2.522-1.923-2.522-1.617 0-2.07 1.703-2.07 2.522h3.993zm10.821 4.564h-.047c-.359.945-1.244 2.662-3.327 2.662-2.888 0-2.888-2.808-2.888-4.399v-3.061c0-1.511-.346-1.876-1.657-1.923v-.432l3.813-.666v6.488c0 1.963.732 2.542 1.77 2.542 1.398 0 2.349-1.83 2.349-3.62v-2.376c0-1.511-.366-1.876-1.657-1.923v-.432l3.813-.666v10.254h-2.169v-2.449zm10.194 2.502c-.476.1-.959.158-1.444.173-2.07 0-3.274-.326-3.274-2.782v-6.621h-1.684v-.858h1.677V38.17l2.156-1.923v3.627h2.821v.858h-2.821v6.275c0 1.511.106 2.176 1.763 2.176.269.004.537-.025.799-.087l.007.865zm2.788-7.286c0-1.511-.346-1.876-1.704-1.923v-.432l3.86-.666v2.848h.04c.306-.998.971-2.848 2.662-2.848a6.59 6.59 0 0 1 1.164.107v2.03a3.94 3.94 0 0 0-1.098-.259c-2.176 0-2.801 1.703-2.801 3.214v5.164h-2.156l.033-7.233zm12.544 5.949c-.304.455-.713.83-1.192 1.093a3.39 3.39 0 0 1-1.563.417c-.711.046-1.411-.188-1.951-.652a2.72 2.72 0 0 1-.937-1.83c0-3.041 4.285-3.274 5.669-3.327v-1.071c0-1.331 0-2.868-1.331-2.868s-1.51 1.251-1.51 2.196h-2.602c.24-1.417.952-2.928 4.053-2.928s3.54 1.571 3.54 3.707v6.548h-2.156l-.02-1.284zm0-3.514c-.779 0-3.327.127-3.327 2.176 0 .992.499 1.684 1.297 1.684 1.245 0 1.996-1.145 1.996-2.608l.034-1.251zm4.632-7.373c0-1.531-.366-1.897-1.637-1.963v-.432l3.793-.539v15.105h-2.156V37.737z" fill="#45ab21"/><path d="M142.284 55.837c-.14-.519-.22-.665-.772-.665v-.166h1.384l.745 2.941.978-2.941h.366l1.092 2.955.625-2.955h.446l-.892 3.953h-.665l-.958-2.715-.932 2.715h-.665l-.752-3.121zm8.81 2.961c-.381.151-.787.23-1.198.233-1.331 0-2.083-.792-2.083-2.209s.666-1.93 1.784-1.93a1.42 1.42 0 0 1 1.185.425 1.41 1.41 0 0 1 .332.555 1.42 1.42 0 0 1 .053.644h-2.422c0 .845.353 2.056 1.551 2.056a2.24 2.24 0 0 0 .798-.146v.373zm-.772-2.622c0-.2 0-.998-.758-.998-.666 0-.819.665-.819.998h1.577zm1.65-2.049c0-.599-.146-.732-.665-.759v-.133l1.504-.213v2.542a1.08 1.08 0 0 1 1.058-.666c1.217 0 1.51 1.111 1.51 2.149s-.426 1.996-1.53 1.996c-.214-.01-.423-.067-.612-.166a1.48 1.48 0 0 1-.486-.407l-.579.479h-.227l.027-4.824zm.845 2.928c0 .453.073 1.517.779 1.517s.871-.998.871-1.65-.073-1.57-.818-1.57-.832.885-.832 1.331v.373zm5.73-1.385c-.291-.23-.642-.371-1.012-.406-.273 0-.599.1-.599.466 0 .812 1.864.825 1.864 2.129 0 .832-.666 1.171-1.531 1.171a4.19 4.19 0 0 1-1.085-.153v-.665a2 2 0 0 0 1.118.446c.539 0 .732-.273.732-.572 0-.832-1.856-.885-1.856-2.056 0-.612.412-1.138 1.417-1.138a3.61 3.61 0 0 1 .952.146v.632zm1.37.42c0-.599-.133-.739-.665-.759v-.166l1.504-.273v4.046h-.852l.013-2.848zm-.093-2.409a.54.54 0 0 1 .539-.539.54.54 0 0 1 .539.539c-.001.072-.016.143-.044.208s-.069.125-.12.176a.55.55 0 0 1-.179.116.53.53 0 0 1-.584-.122c-.048-.05-.087-.109-.113-.174a.53.53 0 0 1-.038-.204h0zm4.286 5.283c-.186.038-.376.061-.566.067-.818 0-1.331-.126-1.331-1.098v-2.609h-.665v-.339h.665v-.666l.852-.759v1.431h1.111v.339h-1.111v2.475c0 .592.047.858.665.858a1.26 1.26 0 0 0 .313-.04l.067.339zm3.813-.166a3.39 3.39 0 0 1-1.198.233c-1.33 0-2.082-.792-2.082-2.209s.665-1.93 1.783-1.93a1.42 1.42 0 0 1 1.185.425 1.44 1.44 0 0 1 .333.555 1.42 1.42 0 0 1 .052.644h-2.422c0 .845.346 2.056 1.551 2.056a2.24 2.24 0 0 0 .798-.146v.373zm-.778-2.622c0-.2 0-.998-.752-.998s-.819.665-.819.998h1.571zm4.597-1.251l4.106 2.05-4.106 2.05v-4.099z" fill="#485c5c"/><path opacity=".25" d="M84.743 58.266c0 .905 5.603 1.624 12.497 1.624s12.504-.719 12.504-1.624-5.603-1.624-12.504-1.624-12.497.752-12.497 1.624z" fill="url(#B)"/><path d="M84.018 46.481a8.42 8.42 0 0 0 7.934 8.316c2.13.123 4.227-.568 5.868-1.933a8.42 8.42 0 0 0 2.968-5.418 6.47 6.47 0 0 0 1.961 2.559c.859.674 1.875 1.12 2.953 1.296s2.182.077 3.211-.289a6.48 6.48 0 0 0 4.147-4.669 6.48 6.48 0 0 0-1.727-6.002 6.48 6.48 0 0 0-2.773-1.646c1.29-1.436 2.001-3.3 1.997-5.23a7.94 7.94 0 0 0-.617-3.041 7.93 7.93 0 0 0-4.323-4.283c-.966-.394-2.002-.594-3.046-.588-.446-.003-.892.037-1.331.12-.404-1.763-1.442-3.316-2.916-4.364s-3.283-1.517-5.081-1.318a7.37 7.37 0 0 0-4.67 2.396c-1.21 1.345-1.884 3.087-1.893 4.896a7.1 7.1 0 0 0 1.091 3.82c-.983.243-1.867.781-2.535 1.542s-1.088 1.707-1.203 2.712.08 2.023.559 2.914 1.219 1.616 2.122 2.075a8.35 8.35 0 0 0-2.695 6.135h0z" fill="#69a82f"/><use xlink:href="#E" fill="#94c122"/><use xlink:href="#E" fill="url(#C)"/><path d="M87.345 24.235c.889-1.037 2.047-1.808 3.347-2.229s2.69-.473 4.018-.153 2.542 1.001 3.507 1.967 1.645 2.181 1.964 3.509c.439-.084.884-.124 1.331-.12 1.338-.014 2.659.313 3.836.949s2.175 1.56 2.898 2.687 1.148 2.418 1.236 3.754a7.91 7.91 0 0 1-.737 3.883 7.88 7.88 0 0 0 1.781-4.053 7.89 7.89 0 0 0-.684-4.374 7.88 7.88 0 0 0-2.934-3.316c-1.274-.802-2.752-1.223-4.258-1.212a6.59 6.59 0 0 0-1.331.12c-.347-1.511-1.158-2.876-2.321-3.902s-2.618-1.662-4.16-1.817-3.095.176-4.439.949-2.412 1.948-3.054 3.359h0zm12.351 24.894a8.18 8.18 0 0 1-.785 2.662 7.95 7.95 0 0 0 1.178-1.883l-.393-.779z" fill="url(#D)"/><g fill="#277833"><path d="M106.643 34.969l-4.325 3.121c-1.521 1.173-2.65 2.778-3.241 4.605l1.664.326c.126-1.504 1.457-2.662 2.575-3.939s2.036-2.881 3.327-4.112z"/><path d="M94.884 29.406c3.021 3.939 3.114 9.556 3.693 14.187a24.1 24.1 0 0 1-1.544 12.151c-.759 1.497-2.662 2.735-2.848 3.121h6.448c1.876-5.383 1.543-10.733.213-15.698-1.398-4.891-1.458-11.692-5.963-13.761z"/><path d="M91.071 41.823c1.69.506 3.54.446 5.23 1.111a10.14 10.14 0 0 1 4.418 3.82l-1.451.838c-.606-1.384-1.996-2.522-3.447-3.394s-3.088-1.564-4.751-2.376z"/></g><rect x="25" y="20" width="40" height="40" rx="20" fill="#004343"/><path fill-rule="evenodd" d="M45.257 48.115l26.48-26.48-2.394-2.394-24.086 24.087-9.241-9.241-2.394 2.394 11.636 11.635z" fill="#45ab21"/><defs><filter id="A" x="0" y="0" width="230" height="90" filterUnits="userSpaceOnUse" color-interpolation-filters="sRGB"><feFlood flood-opacity="0" result="A"/><feColorMatrix in="SourceAlpha" values="0 0 0 0 0 0 0 0 0 0 0 0 0 0 0 0 0 0 127 0"/><feOffset dy="5"/><feGaussianBlur stdDeviation="5"/><feColorMatrix values="0 0 0 0 0 0 0 0 0 0.2625 0 0 0 0 0.2625 0 0 0 0.05 0"/><feBlend in2="A"/><feBlend in="SourceGraphic"/></filter><radialGradient id="B" cx="0" cy="0" r="1" gradientUnits="userSpaceOnUse" gradientTransform="translate(97.281 58.8958) rotate(180) scale(12.4903 1.61702)"><stop offset=".29" stop-color="#000505"/><stop offset="1" stop-color="#004343"/></radialGradient><linearGradient id="C" x1="84.018" y1="47.792" x2="99.875" y2="47.792" gradientUnits="userSpaceOnUse"><stop offset=".07" stop-color="#69a82f"/><stop offset=".37" stop-color="#dae49b"/><stop offset=".7" stop-color="#69a82f"/></linearGradient><linearGradient id="D" x1="87.345" y1="35.887" x2="110.589" y2="35.887" gradientUnits="userSpaceOnUse"><stop offset=".06" stop-color="#69a82f"/><stop offset=".18" stop-color="#9dbf55"/><stop offset=".29" stop-color="#c0d37b"/><stop offset=".38" stop-color="#d3e092"/><stop offset=".43" stop-color="#dae49b"/><stop offset=".57" stop-color="#c7d883"/><stop offset=".85" stop-color="#90b84a"/><stop offset="1" stop-color="#69a82f"/></linearGradient><path id="E" d="M86.32 40.738c-1.131 1.187-1.887 2.68-2.174 4.293s-.093 3.276.559 4.78 1.731 2.783 3.105 3.677 2.98 1.364 4.619 1.35a8.39 8.39 0 0 0 7.446-4.512 8.46 8.46 0 0 1-2.79 1.933c-1.051.45-2.182.681-3.325.682a8.36 8.36 0 0 1-7.156-4.008 8.36 8.36 0 0 1-.284-8.197h0z"/></defs></svg>