<?xml version="1.0" encoding="UTF-8"?> <svg xmlns="http://www.w3.org/2000/svg" viewBox="0 0 66 66"><path d="M11.71 46.953c-.116-.54-.651-.883-1.187-.771l-8.73 1.855c-.54.115-.885.646-.771 1.187.115.536.641.884 1.187.771l8.73-1.855C11.48 48.024 11.824 47.493 11.71 46.953zM10.78 53.809l-3.644 3.644c-.391.391-.391 1.023 0 1.414.391.391 1.023.391 1.414 0l3.644-3.644c.391-.391.391-1.023 0-1.414S11.171 53.419 10.78 53.809zM19.051 54.294c-.538-.112-1.071.23-1.187.771l-1.856 8.73c-.114.54.23 1.071.771 1.187.546.114 1.072-.234 1.187-.771l1.856-8.73C19.936 54.94 19.591 54.409 19.051 54.294zM63.242 2.757c-2.595-2.595-6.844-2.26-9.026.611l-5.692 7.486c-7.225-4.118-15.928-2.44-21.951 6.132-4.255 6.059-8.324 4.978-10.372 3.795-.305-.177-3.372-1.015-5.365.98-1.751 1.749-1.752 4.583 0 6.335l8.244 8.244c-2.399 3.607-2.367 7.877.169 10.414 2.723 2.723 7.08 2.387 10.414.169l8.245 8.245c1.749 1.749 4.592 1.743 6.335 0 1.947-1.948 1.162-5.053.98-5.365-1.181-2.05-2.257-6.122 3.795-10.372 8.645-6.073 10.266-14.782 6.139-21.966l7.474-5.681C65.52 9.585 65.816 5.332 63.242 2.757zM20.663 45.34c-1.745-1.746-1.755-4.848-.134-7.549l7.684 7.683C25.511 47.096 22.409 47.086 20.663 45.34zM42.828 53.754c-.967.967-2.54.967-3.507 0L12.25 26.682c-.967-.967-.972-2.535 0-3.507.971-.971 2.539-.968 3.507 0l27.071 27.071C43.795 51.214 43.794 52.787 42.828 53.754zM47.867 37.794c-4.611 3.238-5.643 6.591-5.509 9.155L19.062 23.652c2.551.128 5.906-.901 9.148-5.516C42.294-1.919 68.119 23.572 47.867 37.794zM61.42 10.191l-7.359 5.594c-1.08-1.464-2.386-2.764-3.855-3.839l5.602-7.367c1.473-1.938 4.312-2.117 6.021-.408C63.542 5.885 63.35 8.724 61.42 10.191z"></path></svg> 