<?xml version="1.0" encoding="UTF-8"?> <svg xmlns="http://www.w3.org/2000/svg" viewBox="0 0 66 66"><path d="M62.992 23.536l-5.93-12.281c-.167-.346-.517-.565-.9-.565H9.833c-.384 0-.733.22-.9.565L3.015 23.511c-.206.617-.061.861.077 1.05 6.046 8.317 14.608 20.095 29.1 40.03.398.549 1.229.535 1.617 0l29.09-40.03C63.107 24.273 63.151 23.864 62.992 23.536zM32.997 59.472l-7.804-34.5h15.609L32.997 59.472zM25.921 22.97l7.076-9.597 7.077 9.597H25.921zM34.977 12.689h18.514l-11.276 9.815L34.977 12.689zM23.78 22.505l-11.276-9.815h18.513L23.78 22.505zM60.498 22.97H44.725l11.106-9.667L60.498 22.97zM10.164 13.303L21.27 22.97H5.497L10.164 13.303zM23.142 24.972l7.805 34.506L5.863 24.972H23.142zM35.044 59.488l7.808-34.516h17.274L35.044 59.488zM25.533 6.598c.22.515.816.741 1.313.525.508-.218.743-.805.525-1.313l-1.8-4.2c-.218-.51-.81-.746-1.313-.525-.508.218-.743.805-.525 1.313L25.533 6.598zM32.997 7.205c.553 0 1-.447 1-1v-4.2c0-.553-.447-1-1-1s-1 .447-1 1v4.2C31.997 6.758 32.444 7.205 32.997 7.205zM39.149 7.124c.496.216 1.093-.01 1.313-.525l1.8-4.2c.218-.508-.018-1.095-.525-1.313-.504-.22-1.096.017-1.313.525l-1.8 4.2C38.406 6.319 38.641 6.906 39.149 7.124z"></path></svg> 