<?xml version="1.0" encoding="UTF-8"?> <svg xmlns="http://www.w3.org/2000/svg" viewBox="0 0 66 66"><path d="M59.852,29.146H45.289c-1.718-2.476-5.488-6.873-8.997-8.923c0.199-0.446,0.311-0.943,0.311-1.462 c0-1.748-1.242-3.17-2.77-3.17h-0.29l2.625-8.039c1.517-4.644-2.85-8.224-6.095-5.749c-0.575,0.439-1.291,0.439-1.868,0 c-1.375-1.046-3.248-1.045-4.615,0c-0.578,0.439-1.292,0.438-1.868,0.001c-1.742-1.33-4.223-1.046-5.534,1.155 c-0.84,1.409-0.998,3.269-0.414,4.852l2.886,7.813c-1.392,0.166-2.486,1.5-2.486,3.137c0,0.523,0.111,1.023,0.316,1.473 C8.206,24.947,2.906,35.031,2.906,46.317c0,16.421,11.305,18.685,23.521,18.685c5.209,0,8.982-0.424,12.085-1.352 c0.589,0.817,1.544,1.355,2.626,1.355h18.714c1.788,0,3.242-1.454,3.242-3.242V32.388C63.094,30.6,61.64,29.146,59.852,29.146z M17.905,3.983c0.658-1.106,1.75-1.24,2.604-0.588c1.283,0.977,3.007,0.978,4.292-0.001c0.678-0.518,1.512-0.518,2.191,0 c1.283,0.979,3.007,0.979,4.292,0c1.752-1.336,3.841,0.904,2.982,3.537l-2.828,8.66H20.78l-3.13-8.474 C17.275,6.103,17.375,4.873,17.905,3.983z M18.944,17.591h14.889c0.364,0,0.77,0.48,0.77,1.17c0,0.431-0.177,0.968-0.57,1.137 c1.328,0.05-14.982,0.046-15.088,0.046c-0.485,0-0.771-0.687-0.771-1.183C18.173,18.072,18.58,17.591,18.944,17.591z M4.906,46.317 c0-10.77,5.085-20.356,12.998-24.602c0.356,0.159,0.735,0.233,1.033,0.233h1.129c-1.228,1.269-2.602,3.07-2.86,4.98 c-0.073,0.548,0.311,1.051,0.857,1.125c0.569,0.073,1.053-0.328,1.125-0.857c0.276-2.048,2.66-4.316,3.835-5.248h5.57 c0.82,0.904,3.208,3.57,5.466,6.433c0.341,0.432,0.969,0.509,1.404,0.166c0.434-0.342,0.508-0.971,0.166-1.404 c-1.575-1.997-3.211-3.898-4.354-5.194h2.559c0.253,0,0.523-0.046,0.764-0.125c0.034-0.01,0.104-0.029,0.189-0.07 c0.016-0.006,0.031-0.013,0.045-0.019c0.021-0.01,0.043-0.019,0.064-0.029c3.158,1.72,5.438,4.422,7.878,7.44h-1.638 c-1.788,0-3.243,1.454-3.243,3.242v29.36c-2.902,0.86-6.485,1.254-11.468,1.254C13.14,63.002,4.906,60.211,4.906,46.317z M61.094,61.762c0,0.685-0.558,1.242-1.242,1.242H41.138c-0.686,0-1.243-0.558-1.243-1.242V32.388c0-0.685,0.558-1.242,1.243-1.242 h18.714c0.685,0,1.242,0.558,1.242,1.242V61.762z"></path><path d="M51.356 37.271c-.359-.609-1.363-.608-1.723.001l-5.211 8.83c-.185.313-.185.702 0 1.016l5.211 8.831c.18.305.508.492.861.492s.682-.187.861-.492l5.212-8.831c.185-.313.185-.702 0-1.017L51.356 37.271zM50.495 53.473l-4.05-6.863 4.05-6.862 4.051 6.862L50.495 53.473zM27.308 42.817h-.061v-3.563c1.05.139 2.024.505 2.924 1.099L31.5 38.61c-1.336-.846-2.754-1.32-4.253-1.421v-.966h-1.309v.948c-4.831.232-5.418 4.712-3.384 6.292.715.556 1.843 1.004 3.384 1.345v3.677c-1.213-.177-2.392-.726-3.537-1.649l-1.493 1.649c1.486 1.2 3.162 1.889 5.03 2.066v1.383h1.309v-1.365c1.39-.063 2.508-.442 3.353-1.137 1.789-1.471 1.565-4.124.164-5.23C30.028 43.619 28.876 43.158 27.308 42.817zM25.938 42.476c-.764-.227-1.281-.464-1.554-.711-.844-.763-.494-2.399 1.554-2.568V42.476zM28.801 48.009c-.382.291-.9.467-1.554.531v-3.411c.818.227 1.377.471 1.677.73C29.495 46.352 29.603 47.399 28.801 48.009z"></path></svg> 